<svg width="26" height="18" viewBox="0 0 26 18" fill="none" xmlns="http://www.w3.org/2000/svg">
<path d="M11.9 11.9V2L2 11.9H11.9Z" stroke="black"/>
<path d="M14.1 11.9V2L24 11.9H14.1Z" stroke="black"/>
<path d="M1.78787 14.988C1.67071 15.1052 1.67071 15.2951 1.78787 15.4123L3.69706 17.3215C3.81421 17.4386 4.00416 17.4386 4.12132 17.3215C4.23848 17.2043 4.23848 17.0143 4.12132 16.8972L2.42426 15.2001L4.12132 13.5031C4.23848 13.3859 4.23848 13.196 4.12132 13.0788C4.00416 12.9617 3.81421 12.9617 3.69706 13.0788L1.78787 14.988ZM24.2121 15.4123C24.3293 15.2951 24.3293 15.1052 24.2121 14.988L22.3029 13.0788C22.1858 12.9617 21.9958 12.9617 21.8787 13.0788C21.7615 13.196 21.7615 13.3859 21.8787 13.5031L23.5757 15.2001L21.8787 16.8972C21.7615 17.0143 21.7615 17.2043 21.8787 17.3215C21.9958 17.4386 22.1858 17.4386 22.3029 17.3215L24.2121 15.4123ZM2 15.5001H24V14.9001H2V15.5001Z" fill="black"/>
</svg>
