<svg width="44" height="8" viewBox="0 0 44 8" fill="none" xmlns="http://www.w3.org/2000/svg">
<path d="M4.42924 0.0606079L5.37379 2.79662H8.4304L5.95755 4.48757L6.90209 7.22358L4.42924 5.53263L1.95638 7.22358L2.90093 4.48757L0.428077 2.79662H3.48469L4.42924 0.0606079Z" fill="#F4DD15"/>
<path d="M13.3384 0.0606232L14.283 2.79664H17.3396L14.8667 4.48759L15.8113 7.2236L13.3384 5.53265L10.8656 7.2236L11.8101 4.48759L9.33726 2.79664H12.3939L13.3384 0.0606232Z" fill="#F4DD15"/>
<path d="M21.9999 0.0606232L22.8889 2.79664H25.7657L23.4383 4.48759L24.3273 7.2236L21.9999 5.53265L19.6725 7.2236L20.5615 4.48759L18.2341 2.79664H21.1109L21.9999 0.0606232Z" fill="#F4DD15"/>
<path d="M30.6617 0.0606232L31.6062 2.79664H34.6628L32.19 4.48759L33.1345 7.2236L30.6617 5.53265L28.1888 7.2236L29.1334 4.48759L26.6605 2.79664H29.7171L30.6617 0.0606232Z" fill="#D9D9D9"/>
<path d="M39.5706 0.0606232L40.5151 2.79664H43.5718L41.0989 4.48759L42.0435 7.2236L39.5706 5.53265L37.0977 7.2236L38.0423 4.48759L35.5694 2.79664H38.626L39.5706 0.0606232Z" fill="#D9D9D9"/>
</svg>
