<svg width="15" height="11" viewBox="0 0 15 11" fill="none" xmlns="http://www.w3.org/2000/svg">
<mask id="path-1-inside-1_78_304" fill="white">
<path d="M9.9397 0H14.4578V10.8434H9.9397V0Z"/>
</mask>
<path d="M9.9397 0V-1H8.9397V0H9.9397ZM9.9397 10.8434H8.9397V11.8434H9.9397V10.8434ZM9.9397 1H14.4578V-1H9.9397V1ZM14.4578 9.84337H9.9397V11.8434H14.4578V9.84337ZM10.9397 10.8434V0H8.9397V10.8434H10.9397Z" fill="black" mask="url(#path-1-inside-1_78_304)"/>
<mask id="path-3-inside-2_78_304" fill="white">
<path d="M4.51807 0H-5.72205e-06V10.8434H4.51807V0Z"/>
</mask>
<path d="M4.51807 0V-1H5.51807V0H4.51807ZM4.51807 10.8434H5.51807V11.8434H4.51807V10.8434ZM4.51807 1H-5.72205e-06V-1H4.51807V1ZM-5.72205e-06 9.84337H4.51807V11.8434H-5.72205e-06V9.84337ZM3.51807 10.8434V0H5.51807V10.8434H3.51807Z" fill="black" mask="url(#path-3-inside-2_78_304)"/>
<line x1="7.729" y1="2.18557e-08" x2="7.729" y2="10.8434" stroke="black"/>
</svg>
